<svg viewBox="0 0 170 156" xmlns="http://www.w3.org/2000/svg">
  <title id="ac-logo-inner-title-up">Amon Carter Museum of American Art</title>
  <g>
    <path fill="#18aaa7" d="M169.434 155.126l-7.89-143.735C138.994 4.153 112.744 0 84.718 0 56.69 0 30.44 4.153 7.89 11.39L0 155.127h169.434z"></path>
    <path fill="#ffffff" d="M26.589 63.914v-.057c0-5.644 4.228-10.27 10.244-10.27 3.66 0 5.875 1.278 7.777 3.093l-2.243 2.583c-1.589-1.476-3.292-2.469-5.562-2.469-3.774 0-6.556 3.12-6.556 7.007v.056c0 3.887 2.753 7.037 6.556 7.037 2.44 0 4.001-.965 5.704-2.554l2.243 2.27c-2.072 2.156-4.343 3.518-8.06 3.518-5.79 0-10.103-4.511-10.103-10.214zm28.265-10.128h3.235l8.74 20.001H63.14l-2.014-4.795h-9.394l-2.043 4.795h-3.576l8.74-20zm4.994 12.115l-3.434-7.944-3.405 7.944h6.84zm9.79-11.973h8.855c2.497 0 4.456.738 5.732 1.987 1.05 1.077 1.646 2.552 1.646 4.283v.057c0 3.262-1.958 5.22-4.711 6.014l5.363 7.518H82.38l-4.88-6.922h-4.371v6.922h-3.49V53.928zm8.6 9.844c2.497 0 4.085-1.305 4.085-3.319v-.057c0-2.126-1.531-3.29-4.115-3.29h-5.08v6.666h5.11zm16.117-6.61h-6.3v-3.234h16.12v3.234h-6.3v16.625h-3.52V57.162zm13.48-3.234h14.729v3.121h-11.238v5.163h9.96v3.121h-9.96v5.334h11.38v3.12h-14.87V53.928zm18.985 0h8.854c2.497 0 4.455.738 5.732 1.987 1.05 1.077 1.647 2.552 1.647 4.283v.057c0 3.262-1.958 5.22-4.712 6.014l5.364 7.518h-4.144l-4.881-6.922h-4.37v6.922h-3.49V53.928zm8.599 9.844c2.497 0 4.086-1.305 4.086-3.319v-.057c0-2.126-1.533-3.29-4.116-3.29h-5.078v6.666h5.108zM35.18 28.125h3.235l8.741 20.001h-3.689l-2.015-4.795h-9.394l-2.042 4.795h-3.577l8.741-20.001zm4.995 12.114l-3.434-7.944-3.405 7.944h6.839zm9.79-11.972h3.717l6.045 9.391 6.046-9.39h3.716v19.858H66V33.884l-6.272 9.362h-.113l-6.215-9.305v14.185h-3.434V28.267zm23.157 9.987v-.057c0-5.589 4.313-10.27 10.415-10.27 6.101 0 10.358 4.624 10.358 10.214v.056c0 5.588-4.314 10.27-10.415 10.27-6.101 0-10.358-4.624-10.358-10.213zm17.113 0v-.057c0-3.858-2.811-7.064-6.755-7.064s-6.697 3.15-6.697 7.008v.056c0 3.858 2.809 7.036 6.754 7.036 3.945 0 6.698-3.121 6.698-6.98zm7.291-9.987h3.235l10.643 13.731v-13.73h3.433v19.858h-2.923L100.96 33.997v14.129h-3.434V28.267zM27.7 80.63h2.056l3.342 5.192 3.341-5.192h2.056v10.98h-1.931v-7.874l-3.466 5.175h-.064L29.6 83.766v7.842H27.7V80.63zm14.533 6.322v-6.322h1.93v6.243c0 2.04 1.051 3.12 2.777 3.12 1.71 0 2.761-1.019 2.761-3.041v-6.322h1.93v6.226c0 3.279-1.852 4.926-4.723 4.926-2.855 0-4.675-1.647-4.675-4.83zm11.772 3.058l1.161-1.38c1.051.909 2.118 1.426 3.467 1.426 1.193 0 1.945-.564 1.945-1.38v-.031c0-.784-.438-1.208-2.478-1.678-2.338-.566-3.656-1.255-3.656-3.28v-.03c0-1.882 1.569-3.183 3.75-3.183 1.6 0 2.871.485 3.985 1.38l-1.036 1.458c-.989-.737-1.976-1.13-2.98-1.13-1.13 0-1.79.582-1.79 1.303v.032c0 .846.503 1.223 2.62 1.725 2.324.564 3.515 1.395 3.515 3.215v.031c0 2.055-1.616 3.278-3.922 3.278a6.764 6.764 0 0 1-4.58-1.756zm11.394-9.38h8.143v1.725h-6.213v2.855h5.506v1.726H67.33v2.948h6.291v1.725H65.4V80.63zm11.112 6.322v-6.322h1.93v6.243c0 2.04 1.052 3.12 2.778 3.12 1.71 0 2.76-1.019 2.76-3.041v-6.322h1.93v6.226c0 3.279-1.852 4.926-4.723 4.926-2.855 0-4.675-1.647-4.675-4.83zm12.508-6.322h2.056l3.342 5.192 3.341-5.192h2.056v10.98h-1.931v-7.874l-3.466 5.175h-.064l-3.435-5.144v7.842H89.02V80.63zm18.756 5.522v-.033c0-3.09 2.385-5.676 5.758-5.676 3.374 0 5.727 2.555 5.727 5.645v.031c0 3.09-2.386 5.678-5.759 5.678s-5.726-2.556-5.726-5.645zm9.46 0v-.033c0-2.132-1.553-3.905-3.734-3.905-2.18 0-3.701 1.742-3.701 3.874v.031c0 2.134 1.553 3.891 3.733 3.891s3.702-1.725 3.702-3.858zm4.194-5.522h8.174v1.756h-6.244v2.997h5.538v1.757h-5.538v4.47h-1.93v-10.98zM32.87 98.366h2.347l6.341 14.51h-2.675l-1.462-3.478h-6.816l-1.482 3.479h-2.594l6.341-14.51zm3.624 8.789l-2.49-5.764-2.472 5.764h4.962zm7.725-8.686h2.697l4.385 6.812 4.386-6.812h2.697v14.408h-2.532v-10.332l-4.55 6.792h-.083l-4.509-6.752v10.292h-2.49V98.47zm18.886 0h10.685v2.264h-8.153v3.745h7.227v2.264h-7.227v3.87h8.256v2.265H63.104V98.47zm14.396 0h6.423c1.812 0 3.233.535 4.16 1.44.761.783 1.194 1.853 1.194 3.109v.04c0 2.367-1.42 3.788-3.418 4.364l3.89 5.455h-3.005l-3.541-5.023h-3.17v5.023H77.5V98.47zm6.238 7.142c1.812 0 2.966-.947 2.966-2.409v-.041c0-1.544-1.113-2.387-2.986-2.387h-3.686v4.837h3.706zm8.98 7.267v-14.41h2.533v14.41h-2.533zm5.52-7.164v-.042c0-4.096 3.068-7.451 7.433-7.451 2.656 0 4.262.927 5.64 2.243l-1.626 1.874c-1.153-1.07-2.387-1.79-4.035-1.79-2.738 0-4.756 2.264-4.756 5.083v.041c0 2.82 1.997 5.104 4.756 5.104 1.771 0 2.903-.699 4.139-1.852l1.626 1.647c-1.503 1.564-3.15 2.553-5.847 2.553-4.2 0-7.33-3.274-7.33-7.41zm20.717-7.348h2.347l6.342 14.51h-2.677l-1.462-3.478h-6.815l-1.483 3.479h-2.594l6.342-14.51zm3.624 8.789l-2.492-5.764-2.47 5.764h4.962zm7.313-8.686h2.347l7.721 9.96v-9.96h2.491v14.408h-2.12l-7.948-10.251v10.251h-2.49V98.47zm-97.023 20.55h2.347l6.341 14.512h-2.675l-1.462-3.479h-6.816l-1.482 3.479h-2.594l6.341-14.512zm3.624 8.79l-2.49-5.764-2.472 5.764h4.962zm7.725-8.686h6.423c1.813 0 3.233.535 4.16 1.44.761.783 1.194 1.853 1.194 3.109v.04c0 2.367-1.42 3.787-3.418 4.364l3.891 5.455h-3.006l-3.54-5.023H46.75v5.023h-2.533v-14.408zm6.239 7.142c1.811 0 2.965-.947 2.965-2.409v-.041c0-1.543-1.112-2.388-2.986-2.388H46.75v4.838h3.706zm12.316-4.797h-4.57v-2.346h11.694v2.346h-4.571v12.063h-2.553v-12.063z"></path>
  </g>
</svg>